HIERARCHY
ROOT Hips
{
  OFFSET 0 0 0
  CHANNELS 6 Xposition Yposition Zposition Zrotation Xrotation Yrotation
  JOINT Spine
  {
    OFFSET 0 10.1816 0.131521
    CHANNELS 3 Zrotation Xrotation Yrotation
    JOINT Spine1
    {
      OFFSET 0 10.0835 -1.0008
      CHANNELS 3 Zrotation Xrotation Yrotation
      JOINT Spine2
      {
        OFFSET 0 9.10001 -1.37342
        CHANNELS 3 Zrotation Xrotation Yrotation
        JOINT Neck
        {
          OFFSET 0 16.6717 -2.51617
          CHANNELS 3 Zrotation Xrotation Yrotation
          JOINT Head
          {
            OFFSET 0 9.61788 1.68501
            CHANNELS 3 Zrotation Xrotation Yrotation
            End Site
            {
              OFFSET 0 0 0
            }
          }
        }
        JOINT LeftShoulder
        {
          OFFSET 4.57045 10.946 -2.62799
          CHANNELS 3 Zrotation Xrotation Yrotation
          JOINT LeftArm
          {
            OFFSET 10.5924 -0.524583 -2.23212
            CHANNELS 3 Zrotation Xrotation Yrotation
            JOINT LeftForeArm
            {
              OFFSET 27.8415 -8.94286e-05 3.74589e-05
              CHANNELS 3 Zrotation Xrotation Yrotation
              JOINT LeftHand
              {
                OFFSET 28.3288 -1.74407e-05 3.78045e-05
                CHANNELS 3 Zrotation Xrotation Yrotation
                End Site
                {
                  OFFSET 0 0 0
                }
              }
            }
          }
        }
        JOINT RightShoulder
        {
          OFFSET -4.56997 10.9462 -2.62802
          CHANNELS 3 Zrotation Xrotation Yrotation
          JOINT RightArm
          {
            OFFSET -10.5928 -0.524798 -2.2321
            CHANNELS 3 Zrotation Xrotation Yrotation
            JOINT RightForeArm
            {
              OFFSET -27.8415 -3.30792e-05 1.16763e-05
              CHANNELS 3 Zrotation Xrotation Yrotation
              JOINT RightHand
              {
                OFFSET -28.3288 0 5.5816e-05
                CHANNELS 3 Zrotation Xrotation Yrotation
                End Site
                {
                  OFFSET 0 0 0
                }
              }
            }
          }
        }
      }
    }
  }
  JOINT LeftUpLeg
  {
    OFFSET 8.20778 -6.75171 -1.59956
    CHANNELS 3 Zrotation Xrotation Yrotation
    JOINT LeftLeg
    {
      OFFSET 0 -44.3705 0.284643
      CHANNELS 3 Zrotation Xrotation Yrotation
      JOINT LeftFoot
      {
        OFFSET 0 -44.4279 -2.98219
        CHANNELS 3 Zrotation Xrotation Yrotation
        JOINT LeftToeBase
        {
          OFFSET 0 -8.72867 10.7106
          CHANNELS 3 Zrotation Xrotation Yrotation
          End Site
          {
            OFFSET 0 0 0
          }
        }
      }
    }
  }
  JOINT RightUpLeg
  {
    OFFSET -8.2078 -6.75166 -1.59956
    CHANNELS 3 Zrotation Xrotation Yrotation
    JOINT RightLeg
    {
      OFFSET 0 -44.3705 0.286156
      CHANNELS 3 Zrotation Xrotation Yrotation
      JOINT RightFoot
      {
        OFFSET 0 -44.4277 -2.98379
        CHANNELS 3 Zrotation Xrotation Yrotation
        JOINT RightToeBase
        {
          OFFSET 0 -8.72867 10.7106
          CHANNELS 3 Zrotation Xrotation Yrotation
          End Site
          {
            OFFSET 0 0 0
          }
        }
      }
    }
  }
}
MOTION
Frames:	12
Frame Time:	0.0333333
-262.677 91.6893 57.6479 2.01408 7.38308 -175.441 0.0462064 6.14035 -1.54382 0.262153 12.2772 -3.11977 0.262154 12.2772 -3.11978 9.1519 18.0438 -6.27154 -1.82004 -10.6461 -2.7417 -4.31556 0.0808348 2.29177 -37.5114 57.5894 8.52463 4.99335 -9.0472 -60.4373 -17.7728 15.454 4.61632 12.1325 -1.3618 -10.5119 34.153 -25.1624 0.761771 -1.67299 3.3303 114.661 -15.5735 4.2015 6.96681 6.73808 -16.619 3.56251 -4.94721 56.9261 7.68774 -1.94023 -26.5181 2.06465 -8.00747e-07 -4.64885e-06 1.17336e-05 -18.3256 -58.5468 -29.3012 3.94316 65.0666 -6.46612 2.11226 -7.91415 -1.97153 -8.19291e-07 1.36546e-06 1.00857e-05 
-262.53 88.2581 52.8482 0.263457 7.63612 -176.87 -0.335508 6.45181 -0.784341 -0.587129 12.9076 -1.54521 -0.587103 12.9076 -1.54523 7.41963 20.0038 -6.01543 0.208477 -12.0077 -3.32364 -8.40646 0.313817 0.932444 -35.037 50.9632 -3.97845 8.96872 -9.70603 -44.9217 2.86772 25.205 3.61094 15.0696 -1.3856 -9.68045 40.3233 -24.0172 -4.61435 -1.35199 3.06181 112.505 -17.5646 4.52064 6.69914 6.90578 -15.4092 8.61647 -2.10258 63.7603 3.7181 -3.64362 -31.3226 0.399431 -8.00747e-07 -4.64885e-06 1.17336e-05 -11.5093 -52.5987 -18.0037 6.67702 48.726 -8.65358 3.5622 -5.83756 -2.53466 -8.19291e-07 1.36546e-06 1.00857e-05 
-262.283 85.5612 47.4535 -0.484325 7.22712 -177.272 -0.263974 6.22172 -0.621017 -0.463771 12.4459 -1.22393 -0.463777 12.4459 -1.22393 4.84999 22.6038 -5.13828 1.33582 -11.303 -3.51292 -12.6027 0.275795 1.53796 -42.4175 37.1801 -7.99866 10.7809 -8.77078 -36.2194 19.1744 19.9058 3.71604 16.2676 -1.0962 -8.06143 44.8087 -19.1476 -7.75649 -0.665846 2.4533 105.898 -18.8994 5.07937 4.73884 7.19008 -12.677 10.7399 0.78021 66.8868 0.0875571 -5.67115 -36.8836 -1.11159 -8.00747e-07 -4.64885e-06 1.17336e-05 -7.01861 -48.3516 -12.2102 4.28201 41.4349 -8.26549 2.54087 -4.56771 -3.82936 -8.19291e-07 1.36546e-06 1.00857e-05 
-261.949 84.2745 42.4469 -0.800607 6.25731 -175.969 -0.119105 5.79069 -0.766178 -0.161141 11.5825 -1.53202 -0.161131 11.5825 -1.53203 3.40391 24.7574 -4.73733 2.36893 -11.4351 -3.80285 -15.1657 0.111032 2.46661 -51.4643 25.4019 -9.3567 10.3638 -8.78193 -37.4268 20.902 -1.5437 12.9039 16.9686 -0.850205 -6.85157 48.8648 -12.9999 -8.97274 0.183961 0.498485 95.2156 -20.9157 13.9303 8.08429 5.65349 -10.6429 8.74081 5.74103 67.4475 -3.76222 -8.30725 -38.4467 -1.54023 -8.00747e-07 -4.64885e-06 1.17336e-05 -6.76862 -48.3835 -9.47663 5.07216 42.2067 -11.5456 -3.71647 7.69017 -5.09963 -8.19291e-07 1.36546e-06 1.00857e-05 
-261.37 83.4048 37.001 -0.290493 5.88838 -176.662 0.232774 5.61107 -0.518674 0.520625 11.2198 -1.06813 0.520638 11.2197 -1.06815 2.39994 25.4283 -4.74113 1.66619 -11.6442 -4.16592 -16.8971 0.214331 2.05263 -56.0181 24.2135 -11.2443 10.1133 -9.60194 -40.8063 17.0768 -4.94687 12.2581 16.7882 -0.737562 -6.38702 52.1359 -2.76417 -6.93928 -0.238927 -5.73612 82.1196 -24.0138 23.0262 11.1776 6.18271 -9.38751 6.04847 3.5021 70.587 -0.944278 -9.46634 -31.0461 -0.61142 -8.00747e-07 -4.64885e-06 1.17336e-05 -6.77769 -49.789 -15.0419 2.03731 49.7703 -6.49497 -5.51439 6.33656 -2.75413 -8.19291e-07 1.36546e-06 1.00857e-05 
-260.573 83.1273 31.8562 1.20256 6.41766 -177.842 0.693873 5.65422 -0.365182 1.43471 11.3034 -0.805478 1.43472 11.3034 -0.805466 0.958503 26.6172 -4.20142 2.20378 -11.6795 -4.32281 -16.8022 0.485477 0.86362 -55.8792 30.5469 -14.0329 10.0184 -10.7508 -44.4743 14.8692 7.08745 6.69062 17.4012 -0.423355 -4.96285 51.9876 11.9872 -2.60302 -5.04565 -13.9299 66.232 -22.557 19.7738 7.71213 8.59687 -10.4054 6.30451 9.30638 77.0949 -6.42257 -8.61121 -15.3967 1.00719 -8.00747e-07 -4.64885e-06 1.17336e-05 -4.26288 -49.0869 -15.7785 1.40788 55.8078 -5.1606 -8.08954 0.616875 -2.25036 -8.19291e-07 1.36546e-06 1.00857e-05 
-259.422 84.4723 26.9645 1.31484 6.70003 -178.118 0.793006 5.62955 -0.400458 1.63767 11.2528 -0.886062 1.63769 11.2528 -0.88606 -0.0222629 27.5424 -3.8789 3.26266 -10.7925 -4.60277 -16.3323 0.528953 0.629577 -51.9199 37.3334 -19.2607 9.84978 -11.7978 -47.7583 10.2177 26.0853 -0.0821636 17.5127 -0.256587 -4.2449 50.5856 24.6102 3.29313 -12.2 -15.4241 47.6348 -21.441 13.3672 5.87948 9.47442 -13.842 4.83505 23.7082 83.4497 -21.0376 -10.0312 -1.15579 2.01677 -8.00747e-07 -4.64885e-06 1.17336e-05 -2.89342 -46.0134 -12.395 6.22255 57.4809 -10.0898 -8.22494 -3.91003 -3.13724 -8.19291e-07 1.36546e-06 1.00857e-05 
-258.282 86.3272 22.7507 1.99442 6.47078 -179.353 0.908232 5.57196 -0.152939 1.84464 11.1407 -0.397932 1.84465 11.1407 -0.397946 0.13448 27.766 -4.26927 3.48608 -11.5014 -4.96002 -15.6736 0.650433 0.00890298 -47.1538 40.9163 -24.396 8.58474 -12.3923 -53.3437 6.24288 39.7291 -3.08274 17.4796 -0.106923 -3.60929 49.0488 31.3262 8.66697 -15.816 -12.2574 33.7931 -20.7711 11.3103 2.18262 9.96684 -18.8183 2.97198 70.6475 86.9252 -70.3413 -8.62986 3.56064 0.750224 -8.00747e-07 -4.64885e-06 1.17336e-05 -0.611112 -42.2876 -12.2156 5.87839 56.3911 -8.94559 -9.06057 -6.59653 -2.79974 -8.19291e-07 1.36546e-06 1.00857e-05 
-256.983 88.6877 18.6801 2.10394 6.27836 178.014 0.756406 5.57351 0.201109 1.5038 11.1491 0.330237 1.50381 11.1491 0.330224 -0.286664 26.8118 -4.47404 3.7868 -11.1532 -5.41741 -14.9219 0.647077 -0.0715537 -43.4677 42.3736 -28.1679 7.52494 -13.0307 -58.4979 1.29389 43.0725 -2.00491 17.1265 0.24353 -2.1045 50.4894 30.5794 10.5935 -15.4489 -9.31462 27.354 -18.0248 10.1811 -1.48474 9.3264 -22.8244 1.21726 101.971 87.1422 -104.252 -5.84393 0.398674 -1.36469 -8.00747e-07 -4.64885e-06 1.17336e-05 3.11124 -37.7805 -9.3663 3.82238 53.385 -6.72903 -9.36707 -8.04348 -2.66485 -8.19291e-07 1.36546e-06 1.00857e-05 
-255.625 91.4221 14.6526 1.72435 6.22542 175.416 0.461209 5.54331 0.437793 0.885864 11.0898 0.836438 0.885869 11.0898 0.83643 -1.16984 26.1528 -4.08944 4.69412 -10.8681 -5.53773 -14.1115 0.578301 0.154128 -42.1797 41.9444 -29.5025 6.41384 -12.5689 -61.9114 -0.0071146 38.7661 -0.401513 16.8199 0.230114 -2.15261 51.943 30.7455 12.5531 -15.1128 -7.88013 23.9678 -15.0051 5.43204 -4.94639 8.0528 -25.9498 -1.18931 67.3511 87.2927 -69.8321 -6.30424 -0.16209 -1.52951 -8.00747e-07 -4.64885e-06 1.17336e-05 6.01136 -32.2421 -4.2705 4.12735 48.5671 -7.38474 -9.32256 -8.57427 -3.13474 -8.19291e-07 1.36546e-06 1.00857e-05 
-254.444 94.0778 10.7756 0.877311 6.29512 173.983 0.122764 5.42928 0.442717 0.204531 10.8593 0.879677 0.204553 10.8593 0.879672 -1.46574 25.8298 -3.99568 4.64685 -10.2891 -5.58185 -13.3896 0.63845 -0.243725 -42.5361 40.5182 -28.5678 5.51747 -11.8324 -64.3577 1.4834 32.8316 -0.780682 17.3155 0.204486 -2.27819 52.8931 31.5651 12.2922 -15.2781 -8.43832 25.2758 -14.1901 3.92179 -6.53466 5.29297 -28.3459 -5.21007 17.214 84.1336 -17.4941 -5.02849 0.822415 -0.040869 -8.00747e-07 -4.64885e-06 1.17336e-05 6.37583 -26.3667 -2.38856 4.10874 43.0612 -7.03982 -9.46166 -8.69147 -3.11208 -8.19291e-07 1.36546e-06 1.00857e-05 
-253.282 96.2515 6.85313 0.431653 6.09709 172.354 -0.0606036 5.14604 0.497934 -0.167347 10.2913 1.00756 -0.167327 10.2913 1.00755 -2.09189 25.6431 -3.7177 4.89388 -10.1655 -5.60913 -13.0609 0.589804 -0.0432158 -42.4005 40.0477 -27.7795 5.1932 -11.6977 -65.6041 2.43012 27.0892 -0.967776 16.9258 0.133216 -2.57789 54.852 32.7698 10.3438 -15.4882 -10.1198 29.3465 -14.5568 3.65792 -6.15578 3.54984 -30.0407 -7.60187 9.78972 77.9751 -6.999 -5.32591 0.385341 1.99711 -8.00747e-07 -4.64885e-06 1.17336e-05 6.83128 -21.0291 -1.06809 3.8936 37.8087 -6.46846 -9.67123 -8.33767 -2.98728 -8.19291e-07 1.36546e-06 1.00857e-05 
